<?xml version="1.0" encoding="UTF-8"?>
<svg xmlns="http://www.w3.org/2000/svg" xmlns:xlink="http://www.w3.org/1999/xlink" id="Layer_1" viewBox="0 0 4000 3000">
  <defs>
    <style>.cls-1{fill:url(#linear-gradient);}.cls-1,.cls-2,.cls-3,.cls-4,.cls-5,.cls-6,.cls-7,.cls-8,.cls-9,.cls-10,.cls-11,.cls-12,.cls-13,.cls-14,.cls-15,.cls-16,.cls-17,.cls-18,.cls-19,.cls-20,.cls-21,.cls-22,.cls-23,.cls-24,.cls-25,.cls-26,.cls-27,.cls-28,.cls-29,.cls-30,.cls-31,.cls-32,.cls-33,.cls-34,.cls-35,.cls-36,.cls-37,.cls-38,.cls-39,.cls-40,.cls-41,.cls-42,.cls-43,.cls-44,.cls-45,.cls-46,.cls-47,.cls-48{stroke-width:0px;}.cls-2{fill:url(#linear-gradient-4);}.cls-3{fill:url(#linear-gradient-2);}.cls-4{fill:url(#linear-gradient-3);}.cls-5{fill:url(#linear-gradient-5);}.cls-6{fill:url(#linear-gradient-6);}.cls-7{fill:#2b4b78;}.cls-8{fill:#2a81e1;}.cls-9{fill:#5aa3f3;}.cls-10{fill:#62bc74;}.cls-11{fill:#6cc776;}.cls-12{fill:#19346d;}.cls-13{fill:#1b305d;}.cls-14{fill:#213a71;}.cls-15{fill:#1e355d;}.cls-16{fill:#17284f;}.cls-17{fill:#247ade;}.cls-18{fill:#d0e1f7;}.cls-19{fill:#de6d87;}.cls-20{fill:#da6820;}.cls-21{fill:#d84b6b;}.cls-22{fill:#d9eafc;}.cls-23{fill:#d8738a;}.cls-24{fill:#aac2e4;}.cls-25{fill:#a5c3ea;}.cls-26{fill:#c2d8f1;}.cls-27{fill:#9e6900;}.cls-28{fill:#c1d4f8;}.cls-29{fill:#8ddfc0;}.cls-30{fill:#92d599;}.cls-31{fill:#64b57b;}.cls-32{fill:#fffcf6;}.cls-33{fill:#fff;}.cls-34{fill:#e54954;}.cls-35{fill:#edf3fd;}.cls-36{fill:#e9a1b2;}.cls-37{fill:#e75d66;}.cls-38{fill:#edb0be;}.cls-39{fill:#ffaf26;}.cls-40{fill:#ffb726;}.cls-41{fill:#ffcd56;}.cls-42{fill:#ffba3b;}.cls-43{fill:#ffd46d;}.cls-44{fill:#f07b77;}.cls-45{fill:#ee2121;}.cls-46{fill:#f0f6fe;}.cls-47{fill:#f1c2cd;}.cls-48{fill:#f5fafe;}</style>
    <linearGradient id="linear-gradient" x1="1" y1="3001" x2="2" y2="3001" gradientTransform="translate(-6581125.5 19364.1) rotate(89.8) scale(2240.8 -2193.7) skewX(0)" gradientUnits="userSpaceOnUse">
      <stop offset="0" stop-color="#4a6d9d"></stop>
      <stop offset="1" stop-color="#223759"></stop>
    </linearGradient>
    <linearGradient id="linear-gradient-2" x1="1" y1="3000.9" x2="2" y2="3000.9" gradientTransform="translate(-1185345.1 27393.7) rotate(88.7) scale(395.5 -395.5)" gradientUnits="userSpaceOnUse">
      <stop offset="0" stop-color="#6db3ff"></stop>
      <stop offset="1" stop-color="#3457d5"></stop>
    </linearGradient>
    <linearGradient id="linear-gradient-3" x1="1" y1="3001" x2="2" y2="3001" gradientTransform="translate(-876613 742.6) rotate(90) scale(292.5 -292.5)" gradientUnits="userSpaceOnUse">
      <stop offset="0" stop-color="#ffcd56"></stop>
      <stop offset="1" stop-color="#dba041"></stop>
    </linearGradient>
    <linearGradient id="linear-gradient-4" x1="1" y1="3001.2" x2="2" y2="3001.2" gradientTransform="translate(-1450856.8 19650.7) rotate(89.2) scale(484.5 -484.5)" gradientUnits="userSpaceOnUse">
      <stop offset="0" stop-color="#92d599"></stop>
      <stop offset="1" stop-color="#57d0a8"></stop>
    </linearGradient>
    <linearGradient id="linear-gradient-5" x1="1" y1="3001" x2="2" y2="3001.1" gradientTransform="translate(-484101.4 8139.3) rotate(89.7) scale(270.8 -162) skewX(-.4)" gradientUnits="userSpaceOnUse">
      <stop offset="0" stop-color="#fbcc5a"></stop>
      <stop offset="1" stop-color="#ffad42"></stop>
    </linearGradient>
    <linearGradient id="linear-gradient-6" x1="1" y1="3001" x2="2" y2="3001" gradientTransform="translate(-4004210.4 253.7) rotate(90) scale(313.2 -1335)" gradientUnits="userSpaceOnUse">
      <stop offset="0" stop-color="#f07b77"></stop>
      <stop offset="1" stop-color="#d74747"></stop>
    </linearGradient>
  </defs>
  <rect class="cls-33" width="4000" height="3000"></rect>
  <g id="back">
    <path class="cls-1" d="M312.9,2539.1s225.5-387.4,171.1-756.4c-61.9-419.9,194.7-422.3,440.8-647.6,236.1-216.2-61-596.3,376.4-785.8,494.5-214.3,584.5,316.4,825.8,330.1,487.8,27.6,636.3-367.1,975.4-77.3,343.6,293.6-25.3,616.9,147.3,934.2,130.3,239.6,625.5,301.9,408.9,1002.8H312.9Z"></path>
    <circle class="cls-41" cx="3140.7" cy="1792.2" r="12.5"></circle>
    <circle class="cls-41" cx="2195.9" cy="926.4" r="12.5"></circle>
    <circle class="cls-41" cx="1671.8" cy="527.7" r="12.5"></circle>
    <circle class="cls-9" cx="3230.1" cy="2095.5" r="12.5"></circle>
    <circle class="cls-44" cx="3500.7" cy="1989.6" r="12.5"></circle>
    <circle class="cls-44" cx="640.9" cy="2251.2" r="12.5"></circle>
    <circle class="cls-44" cx="2789.7" cy="634" r="12.5"></circle>
    <circle class="cls-9" cx="536.1" cy="2430" r="12.5"></circle>
    <circle class="cls-9" cx="1758.9" cy="867.5" r="12.5"></circle>
    <circle class="cls-30" cx="1352.4" cy="475.2" r="12.5"></circle>
    <circle class="cls-30" cx="3513.2" cy="2353.8" r="12.5"></circle>
    <circle class="cls-30" cx="3027.1" cy="1472.7" r="12.5"></circle>
    <circle class="cls-30" cx="2513.4" cy="807.4" r="12.5"></circle>
    <path class="cls-15" d="M3782,2546.6c0-6.9-5.6-12.5-12.5-12.5H230.5c-6.9,0-12.5,5.6-12.5,12.5s5.6,12.5,12.5,12.5h3539c6.9,0,12.5-5.6,12.5-12.5Z"></path>
  </g>
  <g id="front">
    <path class="cls-7" d="M1596.3,701.5c0-26.3-21.3-47.6-47.6-47.6h-857.5c-26.3,0-47.6,21.3-47.6,47.6v1407.3c0,26.3,21.3,47.6,47.6,47.6h857.5c26.3,0,47.6-21.3,47.6-47.6V701.5h0Z"></path>
    <path class="cls-35" d="M3001.1,2076c0-12.5-10.1-22.6-22.6-22.6h-1661.9c-12.5,0-22.6,10.1-22.6,22.6v406.8c0,12.5,10.1,22.6,22.6,22.6h1661.9c12.5,0,22.6-10.1,22.6-22.6v-406.8Z"></path>
    <path class="cls-18" d="M1596.3,2053.4h-279.6c-12.5,0-22.6,10.1-22.6,22.6v80.4h254.6c26.3,0,47.6-21.3,47.6-47.6v-55.4h0Z"></path>
    <path class="cls-26" d="M2402,2138.8c0-1.8-1.5-3.2-3.2-3.2h-638.8c-1.8,0-3.2,1.5-3.2,3.2v58.4c0,1.8,1.5,3.2,3.2,3.2h638.8c1.8,0,3.2-1.5,3.2-3.2v-58.4Z"></path>
    <path class="cls-26" d="M2885.8,2269.7c0-1.2-1-2.2-2.2-2.2h-1124.8c-1.2,0-2.2,1-2.2,2.2v38.8c0,1.2,1,2.2,2.2,2.2h1124.8c1.2,0,2.2-1,2.2-2.2v-38.8Z"></path>
    <path class="cls-26" d="M2630.1,2338.9c0-1.2-1-2.2-2.2-2.2h-869.1c-1.2,0-2.2,1-2.2,2.2v38.8c0,1.2,1,2.2,2.2,2.2h869.1c1.2,0,2.2-1,2.2-2.2v-38.8Z"></path>
    <circle class="cls-30" cx="1556" cy="2279.4" r="143.9"></circle>
    <path class="cls-11" d="M1481.3,2156.4c21.8-13.3,47.4-20.9,74.7-20.9s20.2,1.1,29.8,3.1c-8.7,10.9-22.1,17.8-37.1,17.8h-67.4Z"></path>
    <path class="cls-9" d="M1472.8,2396.9l2.6-39.6c2-29.5,26.5-52.5,56.1-52.5h49c29.6,0,54.1,23,56.1,52.5l2.6,39.6c-23.5,16.7-52.2,26.5-83.2,26.5s-59.7-9.8-83.2-26.5h0ZM1556,2213.2c21,0,38,17,38,38s-17,38-38,38-38-17-38-38,17-38,38-38Z"></path>
    <path class="cls-35" d="M3001.1,1535.7c0-12.5-10.1-22.6-22.6-22.6h-1661.9c-12.5,0-22.6,10.1-22.6,22.6v406.8c0,12.5,10.1,22.6,22.6,22.6h1661.9c12.5,0,22.6-10.1,22.6-22.6v-406.8Z"></path>
    <path class="cls-28" d="M1596.3,1513.1h-279.6c-12.5,0-22.6,10.1-22.6,22.6v406.8c0,12.5,10.1,22.6,22.6,22.6h279.6v-452h0Z"></path>
    <path class="cls-26" d="M2402,1598.4c0-1.8-1.5-3.2-3.2-3.2h-638.8c-1.8,0-3.2,1.5-3.2,3.2v58.4c0,1.8,1.5,3.2,3.2,3.2h638.8c1.8,0,3.2-1.5,3.2-3.2v-58.4Z"></path>
    <path class="cls-26" d="M2885.8,1729.3c0-1.2-1-2.2-2.2-2.2h-1124.8c-1.2,0-2.2,1-2.2,2.2v38.8c0,1.2,1,2.2,2.2,2.2h1124.8c1.2,0,2.2-1,2.2-2.2v-38.8Z"></path>
    <path class="cls-26" d="M2630.1,1798.5c0-1.2-1-2.2-2.2-2.2h-869.1c-1.2,0-2.2,1-2.2,2.2v38.8c0,1.2,1,2.2,2.2,2.2h869.1c1.2,0,2.2-1,2.2-2.2v-38.8Z"></path>
    <circle class="cls-44" cx="1556" cy="1739.1" r="143.9"></circle>
    <path class="cls-37" d="M1596.3,1877.3c-12.8,3.7-26.3,5.7-40.3,5.7-79.4,0-143.9-64.5-143.9-143.9s64.5-143.9,143.9-143.9,27.5,2,40.3,5.7v276.4Z"></path>
    <path class="cls-43" d="M1472.8,1856.5l2.6-39.6c2-29.5,26.5-52.5,56.1-52.5h49c29.6,0,54.1,23,56.1,52.5l2.6,39.6c-23.5,16.7-52.2,26.5-83.2,26.5s-59.7-9.8-83.2-26.5h0ZM1556,1672.9c21,0,38,17,38,38s-17,38-38,38-38-17-38-38,17-38,38-38Z"></path>
    <path class="cls-39" d="M1473.8,1857.2c-.3-.2-.6-.5-1-.7l2.6-39.6c2-29.5,26.5-52.5,56.1-52.5h49c5.5,0,10.8.8,15.8,2.3v110.6h-.5c0,.1,0,.2,0,.2l-.7.2c-.2,0-.4.1-.7.2l-.6.2h-.1s-.5.2-.5.2h-.2s-.5.2-.5.2h-.2s-.5.2-.5.2h-.2s-.5.2-.5.2h-.2s-.5.2-.5.2h-.2s-.5.2-.5.2h-.1s-.7.2-.7.2c-.2,0-.5.1-.7.2l-.7.2h-.1s-.5.1-.5.1h-.2s-.5.1-.5.1h-.2s-.5.1-.5.1h-.2s-.5.1-.5.1h-.2s-.5.1-.5.1h-.2s-.5.1-.5.1h-.2s-.6.1-.6.1h0s-.7.1-.7.1h-.7c0,.1-.1.1-.1.1h-.5c0,0-.2.1-.2.1h-.5c0,0-.2.1-.2.1h-.4c0,0-.2.1-.2.1h-.4c0,0-.2.1-.2.1h-.4c0,0-.2.1-.2.1h-.4c0,0-.2.1-.2.1h-.5c0,0-.2,0-.2,0h-.7c0,0-.7.2-.7.2h-.2s-.5,0-.5,0h-.2s-.4,0-.4,0h-.3s-.4,0-.4,0h-.3s-.4,0-.4,0h-.3s-.4,0-.4,0h-.3s-.4,0-.4,0h-.3s-.5,0-.5,0h-.2s-.6,0-.6,0h-.1s-.7,0-.7,0h-.2s-.5,0-.5,0h-.2s-.4,0-.4,0h-.3s-.4,0-.4,0h-.3s-.4,0-.4,0h-.3s-.4,0-.4,0h-.3s-.4,0-.4,0h-.3s-.4,0-.4,0h-.3s-.5,0-.5,0h-.2s-.7,0-.7,0h-.1s-.6,0-.6,0h-.2s-.4,0-.4,0h-.3s-.4,0-.4,0h-.3s-.4,0-.4,0h-.3s-.4,0-.4,0h-.3s-.4,0-.4,0h-.3s-.4,0-.4,0h-.3s-.5,0-.5,0h-.2s-.7,0-.7,0h-.8s-.3,0-.3,0h-.6s-.3,0-.3,0h-.6s-.2,0-.2,0h-.8s-.2,0-.2,0h-.7s-.3,0-.3,0h-.6s-.3,0-.3,0h-.8s0,0,0,0h-.8s-.3,0-.3,0h-.6s-.3,0-.3,0h-.6s-.2,0-.2,0h-.8c0,0-.2,0-.2,0h-.7s-.3,0-.3,0h-.6s-.3,0-.3,0h-.7c0,0-.1,0-.1,0h-.8c0,0-.3-.1-.3-.1h-.6c0,0-.3,0-.3,0h-.6c0,0-.2,0-.2,0h-.8c0,0-.2-.1-.2-.1h-.7c0,0-.3-.1-.3-.1h-.5c0,0-.3-.1-.3-.1h-.6c0,0-.2-.1-.2-.1h-.8c0-.1-.3-.1-.3-.1h-.5c0,0-.3-.1-.3-.1h-.5c0,0-.3-.1-.3-.1h-.8c0-.1-.2-.2-.2-.2h-.6c0-.1-.3-.2-.3-.2h-.5c0,0-.3-.1-.3-.1h-.5c0,0-.3-.1-.3-.1h-.8c0-.1-.3-.2-.3-.2h-.5c0,0-.3-.2-.3-.2h-.5c0,0-.3-.2-.3-.2h-.6c0-.1-.2-.2-.2-.2h-.2s-.5-.2-.5-.2h-.4c0,0-.4-.2-.4-.2h-.4c0,0-.4-.2-.4-.2h-.3c0,0-.7-.2-.7-.2h-.4c0,0-.4-.2-.4-.2h-.4c0,0-.4-.2-.4-.2h-.4c0,0-.4-.2-.4-.2h-.3c0,0-.3-.2-.3-.2h-.4c0-.1-.4-.2-.4-.2h-.3c0,0-.4-.2-.4-.2h-.3c0,0-.4-.2-.4-.2h-.2c0,0-.4-.2-.4-.2h-.4c0-.1-.3-.2-.3-.2h-.5c0-.1-.3-.2-.3-.2h-.5c0-.1-.2-.2-.2-.2h-.5c0-.1-.5-.3-.5-.3h-.1s-.5-.2-.5-.2h-.2c0,0-.5-.2-.5-.2h-.2c0,0-.5-.2-.5-.2-.2,0-.4-.1-.7-.2l-.5-.2h-.2c0,0-.5-.2-.5-.2h-.2c0,0-.5-.2-.5-.2h-.1s-.6-.2-.6-.2c-.2,0-.4-.2-.7-.2l-.6-.2h-.1s-.6-.2-.6-.2h-.1c-.8-.3-1.6-.6-2.4-1h0c-.8-.4-1.7-.7-2.5-1h0s-.6-.3-.6-.3h0c-7.6-3.1-14.8-6.9-21.7-11.2h0c-.8-.5-1.5-1-2.2-1.4h0s-.5-.4-.5-.4h0c0,0-.5-.4-.5-.4-.2-.1-.4-.3-.6-.4l-.5-.3h0s-.4-.4-.4-.4h-.2c0-.1-.4-.4-.4-.4h-.2c0-.1,0-.1,0-.1ZM1556,1672.9c21,0,38,17,38,38s-17,38-38,38-38-17-38-38,17-38,38-38Z"></path>
    <path class="cls-35" d="M3001.1,995.3c0-12.5-10.1-22.6-22.6-22.6h-1661.9c-12.5,0-22.6,10.1-22.6,22.6v406.8c0,12.5,10.1,22.6,22.6,22.6h1661.9c12.5,0,22.6-10.1,22.6-22.6v-406.8Z"></path>
    <path class="cls-18" d="M2615.5,972.7v372.2c0,15.8,12.8,28.6,28.6,28.6h357v-378.2c0-12.5-10.1-22.6-22.6-22.6h-363.1Z"></path>
    <path class="cls-18" d="M1596.3,972.7h-279.6c-12.5,0-22.6,10.1-22.6,22.6v406.8c0,12.5,10.1,22.6,22.6,22.6h279.6v-452Z"></path>
    <path class="cls-26" d="M2630.1,1258.1c0-1.2-1-2.2-2.2-2.2h-869.1c-1.2,0-2.2,1-2.2,2.2v38.8c0,1.2,1,2.2,2.2,2.2h869.1c1.2,0,2.2-1,2.2-2.2v-38.8ZM2885.8,1189c0-1.2-1-2.2-2.2-2.2h-1124.8c-1.2,0-2.2,1-2.2,2.2v38.8c0,1.2,1,2.2,2.2,2.2h1124.8c1.2,0,2.2-1,2.2-2.2v-38.8ZM2402,1058c0-1.8-1.5-3.2-3.2-3.2h-638.8c-1.8,0-3.2,1.5-3.2,3.2v58.4c0,1.8,1.5,3.2,3.2,3.2h638.8c1.8,0,3.2-1.5,3.2-3.2v-58.4Z"></path>
    <path class="cls-24" d="M2615.5,1256v43.2h12.5c1.2,0,2.2-1,2.2-2.2v-38.8c0-1.2-1-2.2-2.2-2.2h-12.5ZM2615.5,1186.8v43.2h268.1c1.2,0,2.2-1,2.2-2.2v-38.8c0-1.2-1-2.2-2.2-2.2h-268.1Z"></path>
    <circle class="cls-43" cx="1556" cy="1198.7" r="143.9"></circle>
    <path class="cls-40" d="M1596.3,1336.9c-12.8,3.7-26.3,5.7-40.3,5.7-79.4,0-143.9-64.5-143.9-143.9s64.5-143.9,143.9-143.9,27.5,2,40.3,5.7v276.4Z"></path>
    <path class="cls-30" d="M1472.8,1316.1l2.6-39.6c2-29.5,26.5-52.5,56.1-52.5h49c29.6,0,54.1,23,56.1,52.5l2.6,39.6c-23.5,16.7-52.2,26.5-83.2,26.5s-59.7-9.8-83.2-26.5h0ZM1556,1132.5c21,0,38,17,38,38s-17,38-38,38-38-17-38-38,17-38,38-38Z"></path>
    <path class="cls-31" d="M1473.8,1316.8c-.3-.2-.6-.5-1-.7l2.6-39.6c2-29.5,26.5-52.5,56.1-52.5h49c5.5,0,10.8.8,15.8,2.3v110.6h-.5c0,.1,0,.2,0,.2l-.7.2c-.2,0-.4.1-.7.2l-.6.2h-.1s-.5.2-.5.2h-.2s-.5.2-.5.2h-.2s-.5.2-.5.2h-.2s-.5.2-.5.2h-.2s-.5.2-.5.2h-.2s-.5.2-.5.2h-.1s-.7.2-.7.2c-.2,0-.5.1-.7.2h-.7c0,.1-.1.2-.1.2h-.5c0,.1-.2.2-.2.2h-.5c0,.1-.2.1-.2.1h-.5c0,0-.2.1-.2.1h-.5c0,0-.2.1-.2.1h-.5c0,0-.2.1-.2.1h-.5c0,0-.2.1-.2.1h-.6c0,.1,0,.1,0,.1h-.7c0,.1-.7.2-.7.2h-.1s-.5.1-.5.1h-.2s-.5.1-.5.1h-.2s-.4.1-.4.1h-.2s-.4.1-.4.1h-.2s-.4.1-.4.1h-.2s-.4.1-.4.1h-.2s-.5.1-.5.1h-.2s-.7.1-.7.1h-.7c0,0-.2.1-.2.1h-.5c0,0-.2,0-.2,0h-.4c0,0-.3,0-.3,0h-.4c0,0-.3,0-.3,0h-.4s-.3,0-.3,0h-.4s-.3,0-.3,0h-.4s-.3,0-.3,0h-.5s-.2,0-.2,0h-.6c0,0-.1,0-.1,0h-.7c0,0-.2,0-.2,0h-.5s-.2,0-.2,0h-.4s-.3,0-.3,0h-.4s-.3,0-.3,0h-.4s-.3,0-.3,0h-.4s-.3,0-.3,0h-.4s-.3,0-.3,0h-.4s-.3,0-.3,0h-.5s-.2,0-.2,0h-.7s-.1,0-.1,0h-.6s-.2,0-.2,0h-.4s-.3,0-.3,0h-.4s-.3,0-.3,0h-.4s-.3,0-.3,0h-.4s-.3,0-.3,0h-.4s-.3,0-.3,0h-.4s-.3,0-.3,0h-.5s-.2,0-.2,0h-.7s-.8,0-.8,0h-.3s-.6,0-.6,0h-.3s-.6,0-.6,0h-.2s-.8,0-.8,0h-.2s-.7,0-.7,0h-.3s-.6,0-.6,0h-.3s-.8,0-.8,0h0s-.8,0-.8,0h-.3s-.6,0-.6,0h-.3s-.6,0-.6,0h-.2s-.8,0-.8,0h-.2s-.7,0-.7,0h-.3s-.6,0-.6,0h-.3s-.7,0-.7,0h-.1s-.8,0-.8,0h-.3s-.6,0-.6,0h-.3s-.6,0-.6,0h-.2s-.8-.1-.8-.1h-.2s-.7,0-.7,0h-.3s-.5-.1-.5-.1h-.3s-.6-.1-.6-.1h-.2s-.8-.1-.8-.1h-.3s-.5-.1-.5-.1h-.3s-.5-.1-.5-.1h-.3s-.8-.2-.8-.2h-.2s-.6-.1-.6-.1h-.3c0,0-.5-.1-.5-.1h-.3c0,0-.5-.1-.5-.1h-.3s-.8-.2-.8-.2h-.3c0,0-.5-.1-.5-.1h-.3c0,0-.5-.2-.5-.2h-.3c0,0-.6-.2-.6-.2h-.2s-.2,0-.2,0h-.5c0-.1-.4-.2-.4-.2h-.4c0,0-.4-.2-.4-.2h-.4c0,0-.3-.2-.3-.2l-.7-.2h-.4c0,0-.4-.2-.4-.2h-.4c0,0-.4-.2-.4-.2h-.4c0,0-.4-.2-.4-.2h-.3c0,0-.3-.2-.3-.2h-.4c0,0-.4-.2-.4-.2h-.3c0,0-.4-.2-.4-.2h-.3c0,0-.4-.2-.4-.2h-.2c0,0-.4-.2-.4-.2h-.4c0-.1-.3-.2-.3-.2h-.5c0-.1-.3-.2-.3-.2h-.5c0-.1-.2-.2-.2-.2h-.5c0-.1-.5-.3-.5-.3h-.1s-.5-.2-.5-.2h-.2c0,0-.5-.2-.5-.2h-.2c0,0-.5-.2-.5-.2-.2,0-.4-.1-.7-.2l-.5-.2h-.2c0,0-.5-.2-.5-.2h-.2c0,0-.5-.2-.5-.2h-.1s-.6-.2-.6-.2c-.2,0-.4-.2-.7-.2l-.6-.2h-.1s-.6-.2-.6-.2h-.1c-.8-.3-1.6-.6-2.4-1h0c-.8-.4-1.7-.7-2.5-1h0s-.6-.3-.6-.3h0c-7.6-3.1-14.8-6.9-21.7-11.2h0c-.8-.5-1.5-1-2.2-1.4h0s-.5-.4-.5-.4h0c0,0-.5-.4-.5-.4-.2-.1-.4-.3-.6-.4l-.5-.3h0s-.4-.4-.4-.4h-.2c0-.1-.4-.4-.4-.4h-.2c0-.1,0-.1,0-.1ZM1556,1132.5c21,0,38,17,38,38s-17,38-38,38-38-17-38-38,17-38,38-38Z"></path>
    <path class="cls-46" d="M1556,643.9c0-26.3-21.3-47.6-47.6-47.6h-857.5c-26.3,0-47.6,21.3-47.6,47.6v1407.3c0,26.3,21.3,47.6,47.6,47.6h857.5c26.3,0,47.6-21.3,47.6-47.6V643.9h0Z"></path>
    <path class="cls-18" d="M670.9,2098.8h817.5c-13.4-213-189.5-381.8-405.4-383.5h-2.3s-1.1,0-1.1,0h-1.3c-101.8.3-199.7,38.6-274.7,106.9l-1.1,1-1,.9-1,.9-1,1-.5.5c-75.8,71.3-121.6,168.7-128.2,272.4h0Z"></path>
    <path class="cls-26" d="M1215.8,1860.6c0-1.4-1.1-2.5-2.5-2.5h-495c-1.4,0-2.5,1.1-2.5,2.5v45.3c0,1.4,1.1,2.5,2.5,2.5h495c1.4,0,2.5-1.1,2.5-2.5v-45.3ZM1443.6,1772.6c0-1.4-1.1-2.5-2.5-2.5h-722.8c-1.4,0-2.5,1.1-2.5,2.5v45.3c0,1.4,1.1,2.5,2.5,2.5h722.8c1.4,0,2.5-1.1,2.5-2.5v-45.3ZM1443.6,1684.7c0-1.4-1.1-2.5-2.5-2.5h-722.8c-1.4,0-2.5,1.1-2.5,2.5v45.3c0,1.4,1.1,2.5,2.5,2.5h722.8c1.4,0,2.5-1.1,2.5-2.5v-45.3ZM1443.6,1596.8c0-1.4-1.1-2.5-2.5-2.5h-722.8c-1.4,0-2.5,1.1-2.5,2.5v45.3c0,1.4,1.1,2.5,2.5,2.5h722.8c1.4,0,2.5-1.1,2.5-2.5v-45.3ZM1343.6,1431.9c0-2.4-1.9-4.3-4.3-4.3h-519.4c-2.4,0-4.3,1.9-4.3,4.3v78.1c0,2.4,1.9,4.3,4.3,4.3h519.4c2.4,0,4.3-1.9,4.3-4.3v-78.1Z"></path>
    <path class="cls-25" d="M768.9,1858.1c-13.6,15.9-26,32.7-37,50.4h481.3c1.4,0,2.5-1.1,2.5-2.5v-45.3c0-1.4-1.1-2.5-2.5-2.5h-444.4ZM1284.5,1770.1h-409.7c-24.7,14.2-47.9,31.1-69.3,50.4h548.2c-21.2-19.1-44.4-36-69.2-50.4ZM961.9,1732.6h235.9c-36.4-10.9-74.9-17-114.7-17.3h-2.3s-1.1,0-1.1,0h-1.3c-39.8.1-79,6-116.5,17.3h0Z"></path>
    <circle class="cls-3" cx="1079.6" cy="1033.6" r="314"></circle>
    <path class="cls-16" d="M1168,875.3s.4,7.7-.2,17.5c-.6,11.5-2.4,25.9-7.4,34l-11.3-47.7,18.8-3.8Z"></path>
    <path class="cls-23" d="M1116,983.1l1.8,63.4s-26.1,21.2-42.9,18.3c-28.9-5.1-55.3-42.7-55.3-42.7l5.1-86h8c14.1,33.1,42,48.6,83.4,46.9Z"></path>
    <path class="cls-38" d="M1116.8,1011.7l1,34.9s-26.1,21.2-42.9,18.3c-28.9-5.1-55.3-42.7-55.3-42.7l5.1-86,5.1,2.5c16,61.7,45.7,74.6,87.1,73Z"></path>
    <path class="cls-47" d="M1116.8,1011.7l-.8,18.9s-21.6,14-38.5,11c-28.9-5.1-47.8-36.3-47.8-36.3l-5.1-69.1,5.1,2.5c16,61.7,45.7,74.6,87.1,73Z"></path>
    <path class="cls-36" d="M1042,929.8s-1.7-30.4-23.5-26.4c-18.5,3.4-13.7,44.4,11.8,36.1,0,0,6.5,26.4,22.5,39.5,20.3,16.6,82.9,11.4,94.7-3.2,18.9-23.4,14.3-78.7,3.6-105.5l-109.2,11.1v48.4h0Z"></path>
    <path class="cls-47" d="M1066.2,901c-7.5,13.6-16,61.8,0,74.8,20.3,16.6,69.6,14.6,81.3,0,14.9-18.4,15.2-56.5,9.5-85-8.9,9.6-33.7-8.1-52.3,0-12,5.2-35.3,4.3-38.6,10.2h0Z"></path>
    <path class="cls-20" d="M1073.1,914.3s9.2-13.1,26.2-9.5c.8.2,1.6-.3,1.8-1.2.2-.8-.3-1.6-1.2-1.8-19-4-29.3,10.7-29.3,10.7-.5.7-.3,1.6.4,2.1.7.5,1.6.3,2.1-.4h0Z"></path>
    <path class="cls-20" d="M1151.7,910.6s-10.2-14.7-29.3-10.7c-.8.2-1.3,1-1.2,1.8.2.8,1,1.3,1.8,1.2,17-3.6,26.2,9.5,26.2,9.5.5.7,1.4.8,2.1.4.7-.5.8-1.4.4-2.1h0Z"></path>
    <path class="cls-12" d="M1088.8,913.5c1.9,0,3.5,3,3.5,6.6s-1.6,6.6-3.5,6.6-3.5-3-3.5-6.6,1.6-6.6,3.5-6.6Z"></path>
    <path class="cls-19" d="M1116.8,924.2s3.1,11.2,6.6,18.8c1.2,2.7,2.5,5,3.7,6.3-1.4,1.1-4.4,3.1-7.5,3.2-.6,0-1,.5-.9,1.1,0,.6.5,1,1.1.9,4.8-.3,9.5-4.4,9.5-4.4v-1.6c-.6-.3-1-.8-1.5-1.5-.8-1.2-1.7-2.9-2.5-4.8-3.4-7.6-6.5-18.6-6.5-18.6-.2-.5-.7-.8-1.2-.7-.5.2-.8.7-.7,1.2h0Z"></path>
    <path class="cls-45" d="M1100.4,968.4s5.9,4.6,16,2.5c.8-.2,1.3-1,1.1-1.8-.2-.8-1-1.3-1.8-1.1-8.5,1.8-13.5-1.9-13.5-1.9-.7-.5-1.6-.4-2.1.3-.5.7-.4,1.6.3,2.1Z"></path>
    <path class="cls-21" d="M1031.1,926.2s-3.2-9-11.8-7.6c-.8.1-1.4.9-1.2,1.7.1.8.9,1.4,1.7,1.2,6.3-1,8.5,5.6,8.5,5.6.3.8,1.1,1.2,1.9.9.8-.3,1.2-1.1.9-1.9h0Z"></path>
    <path class="cls-12" d="M1136.6,913.5c1.9,0,3.5,3,3.5,6.6s-1.6,6.6-3.5,6.6-3.5-3-3.5-6.6,1.6-6.6,3.5-6.6Z"></path>
    <path class="cls-13" d="M1042,929.8s1.1,14.3,7.1,13c6-1.4,9.1-41.4,7.4-50.1,0,0,24.9,3.9,38.6-7.8,13.8-11.6,29.6-1.4,42.2,0,23.6,2.6,37.4-4.4,37.1-20.1-.3-17.6-9.9-15.6-9.9-15.6,0,0,8.8-28.2-4.2-36.6-13-8.3-20.2-4.7-26.8-7.2s-18.6-19.2-34.1-18.4c-15.5.8-23,11-28.3,12.1-14.9,3.2-49.1-15.6-52,22.4,0,0-21.5,6.2-22.2,22.3-.8,16.1,7.3,22.5,3.8,35.1-3.5,12.6-4.5,26.8,6.6,35.6,9.5-20.7,32.9-11,34.7,15.2h0Z"></path>
    <path class="cls-14" d="M1007.3,872.6c-3.5,12.6,25.6,15.1,31.6,13.8,6-1.4,13.8-14.7,12-23.4,0,0,27.5,23.9,41.3,12.3,13.8-11.6,35.2-1.4,47.8,0,23.6,2.6,34.6,5.3,34.4-10.4-.3-17.6-9.9-15.6-9.9-15.6,0,0,8.8-28.2-4.2-36.6-13-8.3-20.2-4.7-26.8-7.2s-18.6-19.2-34.1-18.4c-15.5.8-23,11-28.3,12.1-14.9,3.2-49.1-15.6-52,22.4,0,0-21.5,6.2-22.2,22.3-.8,16.1,13.9,16.1,10.4,28.7h0Z"></path>
    <path class="cls-4" d="M838.9,1235c14.8-66.5,33.8-140.3,50.5-169.9,23.9-42.2,126.6-56.4,126.6-56.4,0,0,35.4,51.9,69.7,49.2,27.3-2.1,32.6-42.9,32.6-42.9,0,0,97.8,2.8,123.2,42.9,19.6,30.9,47.1,115,69,188.3-57.4,62.3-139.6,101.3-230.9,101.3s-183.1-43.8-240.8-112.5h0Z"></path>
    <path class="cls-33" d="M1005.7,1010s22.8,30.9,46.9,47.8c11.7,8.2,23.8,13,34.2,11.4,13.9-2.1,24-11.3,31-21.8,9.6-14.6,13-31.5,13-31.5.8-3.8-1.7-7.5-5.5-8.2-3.8-.8-7.5,1.7-8.2,5.5l-11,26.5c-4.9,7.4-11.7,14.2-21.5,15.7-4.6.7-9.7-.9-14.9-3.5-6.2-3.1-12.5-7.7-18.4-12.8-18.7-16.1-34.4-37.4-34.4-37.4-2.3-3.1-6.7-3.8-9.8-1.5-3.1,2.3-3.8,6.7-1.5,9.8h0Z"></path>
    <path class="cls-27" d="M1229,1309.7c0-.2,0-.3-.1-.5l-25.4-155.8c-.4-2.2,1.1-4.2,3.3-4.6,2.2-.4,4.2,1.1,4.6,3.3l25,153.5c-2.4,1.4-4.9,2.8-7.4,4.1ZM912.8,1299.5l19.3-147.3c.3-2.2,2.3-3.7,4.5-3.4s3.7,2.3,3.4,4.5l-19.7,150.1c0,.2,0,.5-.2.7-2.5-1.5-5-3-7.4-4.5h0Z"></path>
    <path class="cls-17" d="M2880.5,1991.5l-59.1,78.8s297.7,245.1,428.5,352.9c15.8,13,36.2,19,56.5,16.5,20.3-2.4,38.7-13.1,50.9-29.4,0,0,0,0,0,0,12.3-16.4,17.3-37,13.9-57.2-3.4-20.2-14.8-38.1-31.7-49.5-140.2-95.3-459.1-312.1-459.1-312.1h0Z"></path>
    <path class="cls-9" d="M2944.9,2035.3l-45.3,69.1s255.9,210.9,357.3,294.4c23.7,19.5,57.8,19.9,81.9.8h0c15.3-12.1,24-30.8,23.3-50.4-.7-19.5-10.7-37.6-26.8-48.6-128.3-87.2-390.3-265.4-390.3-265.4h0Z"></path>
    <path class="cls-17" d="M2307.9,1662.1c120.5-160.8,348.8-193.5,509.6-73.1,160.8,120.5,193.5,348.8,73.1,509.6-120.5,160.8-348.8,193.5-509.6,73.1-160.8-120.5-193.5-348.8-73.1-509.6h0Z"></path>
    <path class="cls-9" d="M2323.3,1635.6c120.5-160.8,348.8-193.5,509.6-73.1,160.8,120.5,193.5,348.8,73.1,509.6-120.5,160.8-348.8,193.5-509.6,73.1-160.8-120.5-193.5-348.8-73.1-509.6h0Z"></path>
    <path class="cls-22" d="M2378.3,1676.8c97.7-130.5,283-157,413.4-59.3,130.5,97.7,157,283,59.3,413.4-97.7,130.5-283,157-413.4,59.3-130.5-97.7-157-283-59.3-413.4h0Z"></path>
    <path class="cls-38" d="M2417.7,1706.4c81.4-108.7,235.7-130.8,344.4-49.4,108.7,81.4,130.8,235.7,49.4,344.4-81.4,108.7-235.7,130.8-344.4,49.4-108.7-81.4-130.8-235.7-49.4-344.4h0Z"></path>
    <path class="cls-48" d="M2506.3,1852.8c24.6-32.9,71.3-39.6,104.2-14.9,32.9,24.6,39.6,71.3,14.9,104.2-24.6,32.9-71.3,39.6-104.2,14.9-32.9-24.6-39.6-71.3-14.9-104.2h0Z"></path>
    <path class="cls-48" d="M2650,1819.4c16.2-21.6,46.8-26,68.3-9.8,21.6,16.2,26,46.8,9.8,68.3-16.2,21.6-46.8,26-68.3,9.8-21.6-16.2-26-46.8-9.8-68.3Z"></path>
    <path class="cls-2" d="M3646.5,803.7c0-15.8-12.8-28.6-28.6-28.6h-942.5c-15.8,0-28.6,12.8-28.6,28.6v515.3c0,15.8,12.8,28.6,28.6,28.6h942.5c15.8,0,28.6-12.8,28.6-28.6v-515.2h0Z"></path>
    <path class="cls-29" d="M3646.5,1271.3h-999.7v-8h999.7v8ZM3646.5,1168.3h-999.7v-8h999.7v8ZM3646.5,1065.3h-999.7v-8h999.7v8ZM3646.5,962.3h-999.7v-8h999.7v8ZM3646.5,859.3h-999.7v-8h999.7v8Z"></path>
    <path class="cls-29" d="M2718.1,1347.5h-8v-572.5h8v572.5ZM2821.2,1347.5h-8v-572.5h8v572.5ZM2924.2,1347.5h-8v-572.5h8v572.5ZM3027.2,1347.5h-8v-572.5h8v572.5ZM3130.2,1347.5h-8v-572.5h8v572.5ZM3233.2,1347.5h-8v-572.5h8v572.5ZM3336.2,1347.5h-8v-572.5h8v572.5ZM3439.2,1347.5h-8v-572.5h8v572.5ZM3535.6,1347.5h-8v-572.5h8v572.5ZM3630.6,778v566.5c3-1.5,5.7-3.5,8-5.9v-554.6c-2.3-2.4-5-4.4-8-5.9Z"></path>
    <path class="cls-32" d="M2646.8,1226.9v26.8l6.7-5.9,138.3-123.3,88,84.7,15.4-1.9,88-139,142.7-99.1,54.2,70.1,15,.9,103.6-105.5,108.4,191.7,16.7,1.1,84.6-112.3,138.1-49v-21.2l-150.5,53.4-79.1,104.9-107.4-190-15.8-2.1-104.8,106.8-58.9-76.1-161.7,112.3-83.6,132.1-92.5-89-145.5,129.7h0Z"></path>
    <path class="cls-41" d="M2886.3,1178.1c-11.5,0-20.9,9.3-20.9,20.9s9.3,20.9,20.9,20.9,20.9-9.3,20.9-20.9-9.3-20.9-20.9-20.9ZM2792,1093.8c-11.5,0-20.9,9.3-20.9,20.9s9.3,20.9,20.9,20.9,20.9-9.3,20.9-20.9-9.3-20.9-20.9-20.9ZM3416.8,1093.8c-11.5,0-20.9,9.3-20.9,20.9s9.3,20.9,20.9,20.9,20.9-9.3,20.9-20.9-9.3-20.9-20.9-20.9ZM2970.6,1045.4c-11.5,0-20.9,9.3-20.9,20.9s9.3,20.9,20.9,20.9,20.9-9.3,20.9-20.9-9.3-20.9-20.9-20.9ZM3188,1007.5c-11.5,0-20.9,9.3-20.9,20.9s9.3,20.9,20.9,20.9,20.9-9.3,20.9-20.9-9.3-20.9-20.9-20.9ZM3500.6,988.6c-11.5,0-20.9,9.3-20.9,20.9s9.3,20.9,20.9,20.9,20.9-9.3,20.9-20.9-9.3-20.9-20.9-20.9h0ZM3123,938.5c-11.5,0-20.9,9.3-20.9,20.9s9.3,20.9,20.9,20.9,20.9-9.3,20.9-20.9-9.3-20.9-20.9-20.9ZM3299.3,904.8c-11.5,0-20.9,9.3-20.9,20.9s9.3,20.9,20.9,20.9,20.9-9.3,20.9-20.9-9.3-20.9-20.9-20.9Z"></path>
    <path class="cls-8" d="M790.4,2372.2c72.3,84.5,178,133.2,289.2,133.2,210.1,0,380.6-170.5,380.6-380.6s-.9-29.9-2.6-44.8l-378,44.8-289.2,247.4h0Z"></path>
    <path class="cls-9" d="M815.5,2373.9l271.5-267.3,354.7-6.9c.6,8.4.9,16.8.9,25.2,0,200.3-162.7,363-363,363s-195.7-41.4-264.1-114h0Z"></path>
    <path class="cls-34" d="M831.9,1835.9c-84.4,72.3-132.9,177.9-132.9,289s40.1,197.7,111.5,269.1l269.1-269.1-247.7-289h0Z"></path>
    <path class="cls-44" d="M830.2,1864s201.8,205.2,249.5,260.8l-257.5,257.5c-59.2-66-103.4-168.3-103.4-257.5s40.5-193,111.5-260.8h0Z"></path>
    <path class="cls-42" d="M1460.2,2124.8c0-210.2-170.4-380.6-380.6-380.6v380.6h380.6Z"></path>
    <path class="cls-41" d="M1440,2124.8h-360.4l19.7-360.4c183.7,9.9,330.9,157.1,340.7,340.7v19.7Z"></path>
    <path class="cls-10" d="M1111.3,1745.6c-10.5-.9-21.1-1.3-31.6-1.3-100.9,0-197.7,40.1-269.1,111.5l269.1,269.1,31.6-379.3Z"></path>
    <path class="cls-30" d="M1109.1,1764.4s-22,270.2-29.5,360.4l-257.5-258c67.2-61.6,180.8-102.7,272.4-102.7s9.8,0,14.6.3h0Z"></path>
    <path class="cls-5" d="M2293.5,513.9c0-33.1-26.9-60-60-60h-280c-33.1,0-60,26.9-60,60v280c0,33.1,26.9,60,60,60h280c33.1,0,60-26.9,60-60v-280Z"></path>
    <path class="cls-6" d="M2202.9,728.9c-2-29.5-26.5-52.5-56.1-52.5h-106.8c-29.6,0-54.1,23-56.1,52.5-3.5,52.3-8.3,125-8.3,125h235.5s-4.8-72.6-8.3-125ZM2093.5,550.6c28.8,0,52.3,23.4,52.3,52.3s-23.4,52.3-52.3,52.3-52.3-23.4-52.3-52.3,23.4-52.3,52.3-52.3Z"></path>
  </g>
</svg>
